<svg width="75" height="75" viewBox="0 0 75 75" fill="none" xmlns="http://www.w3.org/2000/svg">
<g clip-path="url(#clip0_1054_710)">
<path fill-rule="evenodd" clip-rule="evenodd" d="M27.7955 1.28755C47.7967 -4.07133 68.3534 7.8 73.7123 27.7951C79.0712 47.7963 67.1998 68.353 47.2047 73.7119C27.2035 79.0708 6.64684 67.1994 1.28796 47.2043C-4.07093 27.2031 7.7943 6.64644 27.7955 1.28755Z" fill="#E63221"/>
<path fill-rule="evenodd" clip-rule="evenodd" d="M27.9416 19.6953C30.5662 19.6953 32.6902 22.7776 32.6902 26.574C32.6902 30.3704 30.5662 33.4526 27.9416 33.4526C25.3171 33.4526 23.1931 30.3704 23.1931 26.574C23.1931 22.7776 25.3171 19.6953 27.9416 19.6953ZM17.1628 57.7996C27.3496 44.5977 48.2969 44.8845 57.3118 57.824L58.7827 56.3652C48.6875 39.2327 27.313 38.6223 15.6309 56.2737L17.1628 57.7996ZM47.0579 19.6953C49.6824 19.6953 51.8064 22.7776 51.8064 26.574C51.8064 30.3704 49.6824 33.4526 47.0579 33.4526C44.4333 33.4526 42.3093 30.3704 42.3093 26.574C42.3032 22.7776 44.4333 19.6953 47.0579 19.6953Z" fill="#141518"/>
</g>
<defs>
<clipPath id="clip0_1054_710">
<rect width="75" height="75" fill="white"/>
</clipPath>
</defs>
</svg>
