<svg width="75" height="75" viewBox="0 0 75 75" fill="none" xmlns="http://www.w3.org/2000/svg">
<g clip-path="url(#clip0_1054_709)">
<path fill-rule="evenodd" clip-rule="evenodd" d="M27.7955 1.28755C47.7967 -4.07133 68.3534 7.8 73.7123 27.7951C79.0712 47.7963 67.1998 68.353 47.2047 73.7119C27.2035 79.0708 6.64684 67.1994 1.28796 47.2043C-4.07093 27.2031 7.7943 6.64644 27.7955 1.28755Z" fill="#6CC510"/>
<path fill-rule="evenodd" clip-rule="evenodd" d="M25.5679 17.0039C28.1924 17.0039 30.3164 20.0007 30.3164 23.6995C30.3164 27.3982 28.1924 30.395 25.5679 30.395C22.9434 30.395 20.8193 27.3982 20.8193 23.6995C20.8193 20.0007 22.9434 17.0039 25.5679 17.0039ZM17.4258 40.9663C27.6064 40.6489 48.5598 41.1433 57.5747 40.9419C57.5747 65.2156 17.4258 67.5349 17.4258 40.9663ZM49.4326 17.0039C52.0571 17.0039 54.1812 20.0007 54.1812 23.6995C54.1812 27.3982 52.0571 30.395 49.4326 30.395C46.8081 30.395 44.6841 27.3982 44.6841 23.6995C44.6841 20.0007 46.8081 17.0039 49.4326 17.0039Z" fill="#141518"/>
<path fill-rule="evenodd" clip-rule="evenodd" d="M17.4258 40.9669C27.6064 40.0392 48.5598 40.558 57.5747 40.9425C57.6907 49.579 17.5479 49.4691 17.4258 40.9669Z" fill="white"/>
<path fill-rule="evenodd" clip-rule="evenodd" d="M23.5596 55.5116C30.3406 61.377 42.9932 61.609 50.5981 55.5116C46.46 50.8058 41.9434 50.6593 36.9324 54.3641C31.7688 50.232 28.3081 50.1161 23.5596 55.5116Z" fill="#FF0000"/>
</g>
<defs>
<clipPath id="clip0_1054_709">
<rect width="75" height="75" fill="white"/>
</clipPath>
</defs>
</svg>
