<svg width="75" height="75" viewBox="0 0 75 75" fill="none" xmlns="http://www.w3.org/2000/svg">
<g clip-path="url(#clip0_1054_740)">
<path fill-rule="evenodd" clip-rule="evenodd" d="M27.7955 1.28755C47.7967 -4.07133 68.3534 7.8 73.7123 27.7951C79.0712 47.7963 67.1998 68.353 47.2047 73.7119C27.2035 79.0708 6.64684 67.1994 1.28796 47.2043C-4.07093 27.2031 7.7943 6.64644 27.7955 1.28755Z" fill="#FBD433"/>
<path fill-rule="evenodd" clip-rule="evenodd" d="M25.2262 23.0894C27.2159 23.9073 28.6746 26.5623 28.6746 29.7056C28.6746 33.5081 26.5506 36.5843 23.9261 36.5843C21.3016 36.5843 19.1776 33.502 19.1776 29.7056C19.1776 28.137 19.5438 26.6905 20.1541 25.5308C18.8663 26.3121 17.5846 27.191 16.2845 28.137C15.3018 28.8512 13.9224 28.6314 13.2083 27.6427C12.4942 26.66 12.714 25.2806 13.7027 24.5665C15.6925 23.12 17.6822 21.7894 19.849 20.6541C22.0462 19.5006 24.3595 18.5911 26.9168 18.0357C28.107 17.7794 29.2789 18.5362 29.5352 19.7264C29.7916 20.9166 29.0348 22.0885 27.8446 22.3448C26.929 22.5462 26.0623 22.7965 25.2262 23.0894ZM61.3102 22.6439C62.2928 23.358 62.5187 24.7374 61.8045 25.7201C61.0904 26.7027 59.711 26.9285 58.7284 26.2144C56.8485 24.8473 55.0113 23.6143 53.1375 22.6317C51.2943 21.6673 49.3473 20.8983 47.1744 20.4283C45.9842 20.172 45.2274 19.0001 45.4837 17.8099C45.7401 16.6197 46.912 15.8629 48.1021 16.1192C50.6595 16.6746 52.9666 17.5841 55.17 18.7376C57.3307 19.8668 59.3204 21.1973 61.3102 22.6439ZM29.3827 57.849C27.8812 57.849 26.6666 56.6344 26.6666 55.1329C26.6666 53.6314 27.8812 52.4168 29.3827 52.4168H48.2425C49.744 52.4168 50.9586 53.6314 50.9586 55.1329C50.9586 56.6344 49.744 57.849 48.2425 57.849H29.3827ZM50.2994 22.827C52.9239 22.827 55.0479 25.9093 55.0479 29.7056C55.0479 33.5081 52.9239 36.5843 50.2994 36.5843C47.6749 36.5843 45.5509 33.502 45.5509 29.7056C45.5448 25.9032 47.6749 22.827 50.2994 22.827Z" fill="#141518"/>
</g>
<defs>
<clipPath id="clip0_1054_740">
<rect width="75" height="75" fill="white"/>
</clipPath>
</defs>
</svg>
