<svg width="1001" height="795" viewBox="0 0 1001 795" fill="none" xmlns="http://www.w3.org/2000/svg">
<path fill-rule="evenodd" clip-rule="evenodd" d="M97.3152 437.338C143.678 443.598 175.687 482.93 168.818 525.179C161.948 567.428 118.786 596.597 72.4304 590.337C26.0673 584.077 -5.94162 544.745 0.928036 502.496C7.79769 460.247 50.9592 431.078 97.3223 437.338M358.638 0.509771C386.59 4.28386 405.884 27.9911 401.743 53.463C397.601 78.9284 371.585 96.5172 343.633 92.7431C315.688 88.969 296.387 65.2618 300.528 39.7899C304.67 14.3245 330.685 -3.26432 358.638 0.509771ZM891.651 77.5502C908.909 79.8816 920.818 94.5207 918.267 110.242C915.708 125.969 899.644 136.828 882.392 134.496C865.133 132.165 853.224 117.526 855.776 101.805C858.334 86.0773 874.399 75.2252 891.651 77.5502ZM195.038 596.462C214.396 599.077 227.768 615.5 224.898 633.14C222.029 650.78 204.007 662.966 184.649 660.351C165.291 657.736 151.919 641.313 154.788 623.673C157.658 606.032 175.68 593.847 195.038 596.462ZM970.341 80.4419C979.246 81.6463 985.401 89.2009 984.08 97.3223C982.758 105.444 974.468 111.047 965.556 109.842C956.644 108.638 950.495 101.083 951.809 92.9621C953.131 84.8407 961.428 79.2376 970.333 80.4419H970.341ZM656.973 62.7629C748.575 75.135 828.361 114.718 887.961 171.155C901.022 159.814 919.475 153.882 938.699 156.478C971.818 160.954 994.681 189.04 989.776 219.22C986.794 237.543 974.263 252.421 957.464 260.284C993.833 325.713 1009.11 401.678 996.413 479.748C986.009 543.715 958.064 601.344 917.716 649.235C944.332 666.006 959.711 695.612 954.644 726.758C947.541 770.431 902.93 800.591 854.998 794.119C824.954 790.061 800.741 772.569 788.606 749.319C714.835 785.521 628.081 801.126 538.818 789.069C332.756 761.234 186.416 595.811 195.37 410.23C130.992 381.036 91.5198 316.516 102.63 248.183C116.447 163.221 203.236 104.555 296.471 117.152C316.904 119.915 335.951 125.866 353.09 134.374C436.571 76.1719 544.79 47.6022 656.973 62.7565V62.7629Z" fill="#F5EDFF"/>
</svg>
