<svg width="1161" height="1106" viewBox="0 0 1161 1106" fill="none" xmlns="http://www.w3.org/2000/svg">
<path fill-rule="evenodd" clip-rule="evenodd" d="M112.89 608.428C166.674 617.137 203.806 671.856 195.836 730.633C187.867 789.411 137.798 829.99 84.0227 821.281C30.2393 812.572 -6.89256 757.854 1.07657 699.076C9.0457 640.299 59.1151 599.719 112.899 608.428M416.037 0.709198C448.463 5.95974 470.845 38.9414 466.041 74.3781C461.236 109.806 431.057 134.275 398.631 129.025C366.214 123.774 343.823 90.7927 348.627 55.3561C353.432 19.9283 383.611 -4.54134 416.037 0.709198ZM1034.36 107.888C1054.38 111.132 1068.19 131.498 1065.23 153.369C1062.27 175.249 1043.63 190.356 1023.62 187.112C1003.6 183.869 989.781 163.503 992.741 141.632C995.709 119.751 1014.34 104.654 1034.36 107.888ZM226.254 829.802C248.71 833.44 264.222 856.288 260.893 880.829C257.564 905.37 236.658 922.323 214.202 918.685C191.745 915.047 176.233 892.199 179.562 867.658C182.891 843.117 203.797 826.164 226.254 829.802ZM1125.64 111.911C1135.97 113.587 1143.11 124.097 1141.58 135.395C1140.05 146.694 1130.43 154.489 1120.09 152.814C1109.75 151.138 1102.62 140.628 1104.14 129.33C1105.68 118.031 1115.3 110.236 1125.63 111.911H1125.64ZM762.12 87.3163C868.383 104.528 960.938 159.596 1030.08 238.113C1045.23 222.334 1066.64 214.082 1088.94 217.693C1127.36 223.92 1153.88 262.994 1148.19 304.981C1144.73 330.472 1130.19 351.169 1110.7 362.11C1152.89 453.134 1170.62 558.817 1155.89 667.43C1143.82 756.42 1111.4 836.594 1064.59 903.22C1095.47 926.552 1113.31 967.741 1107.43 1011.07C1099.19 1071.83 1047.44 1113.79 991.839 1104.78C956.987 1099.14 928.898 1074.8 914.821 1042.46C829.243 1092.82 728.604 1114.53 625.054 1097.76C386.013 1059.03 216.251 828.897 226.639 570.716C151.957 530.1 106.167 440.339 119.056 345.274C135.084 227.074 235.764 145.457 343.921 162.983C367.624 166.827 389.719 175.106 409.601 186.942C506.444 105.971 631.982 66.2245 762.12 87.3073V87.3163Z" fill="#F5EEFF"/>
</svg>
